<!-- Generated by IcoMoon.io -->
<svg version="1.1" xmlns="http://www.w3.org/2000/svg" width="1024" height="1024" viewBox="0 0 1024 1024">
<g id="icomoon-ignore">
</g>
<path fill="#000" d="M379.742 450c17.664 0 32-14.336 32-32v-124.8c0-55.792 45.392-101.2 101.184-101.2s101.2 45.408 101.2 101.2v124.8c0 17.664 14.32 32 32 32 17.664 0 32-14.336 32-32v-124.8c0.016-91.088-74.096-165.2-165.2-165.2-91.072 0-165.184 74.112-165.184 165.2v124.8c0 17.664 14.336 32 32 32z"></path>
<path fill="#000" d="M880 378.094h-169.856v39.904c0 35.296-28.704 64-64 64s-64-28.704-64-64v-39.904h-138.384v39.904c0 35.296-28.704 64-64 64s-64-28.704-64-64v-39.904h-171.76c-8.832 0-14.288 6.96-12.192 15.536l111.968 455.952c6.752 25.632 33.728 46.416 60.224 46.416h416c26.528 0 53.472-20.784 60.256-46.416l111.936-455.952c2.096-8.592-3.344-15.536-12.192-15.536z"></path>
<path fill="#fff" d="M457.602 550.4c0-12.376 10.024-22.4 22.4-22.4s22.4 10.024 22.4 22.4v89.6c0-12.376 10.024-22.4 22.4-22.4s22.4 10.024 22.4 22.4v26.822c0.202-12.197 10.152-38.022 22.398-38.022 12.37 0 22.398 10.029 22.4 22.4 0 0 0.658 16.658 2.131 17.653 3.584-7.597 11.312-28.853 20.269-28.853 12.371 0 22.4 10.029 22.4 22.4v112c0 24.741-20.059 44.8-44.8 44.8h-74.883c-23.766 0-46.558-9.442-63.358-26.242l-35.358-35.358-50.4-22.557c0.082-21.39 16.842-27.843 33.6-27.843 14.437 0 27.418 2.251 56 16.8l0.002-173.6z"></path>
</svg>
